<svg width="999" height="547" viewBox="0 0 999 547" fill="none" xmlns="http://www.w3.org/2000/svg">
<rect width="999" height="547" fill="#F5F5F5"/>
<ellipse cx="337.689" cy="296.833" rx="150.335" ry="124.866" transform="rotate(-39.2809 337.689 296.833)" fill="#00891F"/>
<ellipse cx="395.689" cy="138.333" rx="152.551" ry="127.575" transform="rotate(-39.2809 395.689 138.333)" fill="#00891F"/>
<ellipse cx="669.906" cy="298.643" rx="140.177" ry="134.237" transform="rotate(50.1084 669.906 298.643)" fill="#00891F"/>
<ellipse cx="584.562" cy="149.213" rx="145.282" ry="136.052" transform="rotate(50.1084 584.562 149.213)" fill="#00891F"/>
<rect x="343" y="258" width="302" height="164" fill="#F6F5F5"/>
<path d="M490.192 77.9179C492.082 76.2507 494.918 76.2507 496.808 77.9179L692.727 250.75C696.182 253.798 694.026 259.5 689.419 259.5H297.581C292.974 259.5 290.818 253.798 294.273 250.75L490.192 77.9179Z" fill="#F6F5F5"/>
<path d="M453.72 353.65C453.72 349.45 454.42 342.55 455.82 332.95H421.92C420.62 340.45 419.97 345.6 419.97 348.4C419.97 358.1 421.47 365.35 424.47 370.15C418.47 374.65 412.22 376.9 405.72 376.9C399.22 376.9 394.57 375.05 391.77 371.35C388.97 367.55 387.57 361.95 387.57 354.55C387.57 347.05 390.72 325.9 397.02 291.1L389.07 275.05C400.37 267.75 410.67 264.1 419.97 264.1C427.67 264.1 431.52 268.8 431.52 278.2C431.52 281 429.42 293.3 425.22 315.1H458.82C459.22 312.6 460.67 304.6 463.17 291.1L455.22 275.05C466.52 267.75 476.82 264.1 486.12 264.1C493.82 264.1 497.67 268.8 497.67 278.2C497.67 281.3 495.72 292.85 491.82 312.85C488.02 332.75 486.12 344.6 486.12 348.4C486.12 358.1 487.62 365.35 490.62 370.15C484.62 374.65 478.37 376.9 471.87 376.9C465.37 376.9 460.72 375.05 457.92 371.35C455.12 367.55 453.72 361.65 453.72 353.65ZM538.803 368.2C532.203 373.3 526.103 375.85 520.503 375.85C514.903 375.85 510.753 374.2 508.053 370.9C505.353 367.6 504.003 363.35 504.003 358.15C504.003 352.85 506.153 348 510.453 343.6C514.853 339.1 520.753 336.85 528.153 336.85C530.453 336.85 532.703 337.1 534.903 337.6C543.403 330.4 549.753 324.15 553.953 318.85C558.153 313.55 560.253 308.95 560.253 305.05C560.253 301.05 559.153 298 556.953 295.9C554.853 293.8 552.003 292.75 548.403 292.75C542.503 292.75 537.803 295.5 534.303 301C532.603 303.5 531.103 306.65 529.803 310.45C525.303 309.95 521.903 308.4 519.603 305.8C517.303 303.2 516.153 299.95 516.153 296.05C516.153 288.55 519.753 282 526.953 276.4C534.253 270.8 545.303 268 560.103 268C572.203 268 581.253 270.9 587.253 276.7C593.353 282.4 596.403 289 596.403 296.5C596.403 309.8 584.553 325.75 560.853 344.35C569.453 345.75 576.203 346.45 581.103 346.45L598.653 339.7C599.753 344.3 600.303 348.5 600.303 352.3C600.303 360.5 598.053 366.65 593.553 370.75C589.053 374.75 583.603 376.75 577.203 376.75C570.803 376.75 564.853 376.05 559.353 374.65C553.953 373.35 547.103 371.2 538.803 368.2Z" fill="#00891F"/>
<ellipse cx="753.483" cy="429.637" rx="143.5" ry="93.5" transform="rotate(12.6409 753.483 429.637)" fill="#00891F"/>
<ellipse cx="244.299" cy="425.206" rx="129.35" ry="94.5055" transform="rotate(-9.12574 244.299 425.206)" fill="#00891F"/>
<path d="M978.583 543.506C1000.75 528.087 1004.94 511.814 990.799 496.002C976.66 480.19 944.596 465.282 897.195 452.482C849.794 439.683 788.386 429.35 717.932 422.32C647.478 415.29 569.954 411.759 491.622 412.013C413.29 412.266 336.347 416.297 267.009 423.78C197.67 431.262 137.881 441.987 92.4711 455.087C47.0611 468.187 17.3037 483.295 5.60275 499.191C-6.09816 515.087 0.585565 531.324 25.114 546.592L499.5 514.5L978.583 543.506Z" fill="#F6F5F5"/>
</svg>
